<?xml version="1.0" encoding="UTF-8"?>
<svg id="New_Layer" data-name="New Layer" xmlns="http://www.w3.org/2000/svg" viewBox="0 0 315.43 333.04">
  <defs>
    <style>
      .cls-1 {
        fill: #f3e69c;
        fill-rule: evenodd;
      }
    </style>
  </defs>
  <path class="cls-1" d="m126.66,2.86c-1.8.8-6,6-11.5,14.3-7.7,11.3-10.5,14.4-22.3,25-7.4,6.7-14.1,13.3-14.9,14.7-1.4,2.4-1.2,3,3,9.9,2.4,4.1,7.1,11,10.5,15.5,10,13.4,10.4,14.2,10.4,22.5,0,5.8-.6,8.6-2.6,12.9-3.8,8.2-6.7,11.5-17,19.1-5.2,3.9-9.8,7.8-10.4,8.9-2.9,5.4.6,10,7.6,10,5,0,7.1-.9,12.6-5.3,4.4-3.5,19.9-20.9,31.4-35.2,10.9-13.5,45.9-49.3,55.9-57,19.8-15.4,37.8-24.6,53.7-27.5,4.6-.9,8.8-.8,16.7,0,11.5,1.3,16.6,2.8,21.2,6.1,3,2.1,5.9,2,5.9-.3,0-3.4-2.4-9.2-5-12.2-3.7-4.2-10-6.9-20.9-9.1-11.2-2.3-17.2-1.3-34.9,6-19.2,8-25.4,9.7-33.2,9.3-9.6-.5-15.8-3.9-26.5-14.2-12.2-11.9-22.7-16.6-29.7-13.4Z"/>
  <path class="cls-1" d="m227.86,48.66c-15.7,4.2-25.9,10.8-45.7,29.5-17.4,16.3-31,32.8-79.2,95.8-13.6,17.9-27.1,28.1-41.6,31.8-11.4,2.9-25.9-1.6-34.8-10.7-6.9-7.1-10-14-10.4-23.9-.6-10.3,1.8-15.5,8.9-19.4,6.9-3.8,10.1-9.7,7.8-14.1-3.7-7-24.3,5.8-28.5,17.7-.9,2.6-1.9,8.2-2.2,12.3-2.3,32.5,27,58.3,59.8,52.5,8.6-1.5,18.9-6.2,28.9-13.3,8.2-5.8,21.6-19.4,27.7-28,10.2-14.6,26-36,31.2-42.2,21.6-25.7,49.8-55.3,58.4-61.2,12.7-8.7,26.5-13.1,41.2-13.1s23.9,3.7,33.1,13.5c10.4,11,14.2,21,15,39.3.5,10.7.3,13.1-2,22-4.8,18.5-15.1,36.1-29.6,50.5-6.8,6.9-10.2,9.4-17,12.7-20.4,9.9-42.5,7.9-47.6-4.3-2.1-4.9-1.8-19.3.6-28.9,2-8.2,19.9-61.9,24.4-73.4,3.5-8.6,3.4-11.8-.1-13.2-4.1-1.5-8.9-.3-11.1,2.9-1,1.5-3.5,7.4-5.4,13.2-2,5.8-5.4,14.8-7.6,20-8.2,19.7-16.2,45-18.2,57.4-2.5,15-2.5,19.9-.1,25.3,2.3,4.9,9.7,12.3,16,16,24,14.2,67.8-2.3,90-33.8,22.8-32.3,28.3-63.7,16.5-93.9-5.8-14.6-15.9-28.2-25.1-33.5-9.2-5.5-14.7-6.7-30.8-7.1-12.7-.4-16.1-.1-22.5,1.6Z"/>
  <path class="cls-1" d="m184.26,116.36c-55.4,67.1-71.4,88.8-86.8,117.5l-5.7,10.6,8.6,11.4c10.7,14.3,19.1,28.4,31.1,52.1l9.4,18.8v-61.5l-2.7-2.8c-5.2-5.5-2.9-12.6,4.9-15,3.2-.9,4.4-.8,7.7.6,6.7,3.1,8.1,9.9,3.1,14.6l-3,2.8.2,32.9.3,32.8,16.9-29.5c17.2-30.2,23.2-39.8,31.8-50.8,2.7-3.5,4.7-6.6,4.5-6.9-.3-.2-4.9-2.4-10.3-4.9-12.1-5.4-16.2-8.1-20.7-13.6-10.5-12.8-10.3-25.7,1.2-68.2,5.5-20,9.2-30.9,15.1-43.3,2.1-4.6,3.7-8.3,3.6-8.3-.2,0-4.3,4.8-9.2,10.7Z"/>
</svg>